<svg width="30" height="17" viewBox="0 0 30 17" fill="none" xmlns="http://www.w3.org/2000/svg">
<path d="M24.1826 9.74831C23.7114 9.15331 23.8462 8.8886 24.1826 8.35674C24.1886 8.35067 28.078 2.97622 28.4787 1.15357L28.4811 1.15236C28.6803 0.488144 28.4812 0 27.5182 0H24.3319C23.5208 0 23.1468 0.41893 22.9464 0.887645C22.9464 0.887645 21.3241 4.77094 19.0291 7.28816C18.2884 8.01552 17.946 8.24867 17.5416 8.24867C17.3425 8.24867 17.0328 8.01552 17.0328 7.35131V1.15236C17.0328 0.355787 16.8058 0 16.1343 0H11.1241C10.6153 0 10.313 0.371573 10.313 0.717645C10.313 1.47293 11.4605 1.64658 11.5795 3.77158V8.38224C11.5795 9.39253 11.3961 9.57831 10.9893 9.57831C9.90617 9.57831 7.27723 5.67923 5.7193 1.21672C5.4048 0.350929 5.09759 0.0012142 4.28037 0.0012142H1.09286C0.183358 0.0012142 0 0.420144 0 0.888859C0 1.717 1.08315 5.83466 5.03687 11.2747C7.67188 14.988 11.3827 17 14.7585 17C16.7875 17 17.0353 16.5532 17.0353 15.7845C17.0353 12.2364 16.8519 11.9012 17.8683 11.9012C18.3394 11.9012 19.1506 12.1344 21.0448 13.9255C23.2099 16.0493 23.5657 17 24.7776 17H27.9639C28.8722 17 29.3324 16.5532 29.0677 15.6716C28.4617 13.8174 24.3671 10.0033 24.1826 9.74831Z" fill="white"/>
</svg>
